<?xml version="1.0" standalone="no"?>
<!DOCTYPE svg PUBLIC "-//W3C//DTD SVG 20010904//EN"
 "http://www.w3.org/TR/2001/REC-SVG-20010904/DTD/svg10.dtd">
<svg version="1.0" xmlns="http://www.w3.org/2000/svg"
 width="16.000000pt" height="16.000000pt" viewBox="0 0 16.000000 16.000000"
 preserveAspectRatio="xMidYMid meet">
<metadata>
Created by potrace 1.11, written by Peter Selinger 2001-2013
</metadata>
<g transform="translate(0.000000,16.000000) scale(0.003125,-0.003125)"
fill="#000000" stroke="none">
<path d="M2408 4924 c-2 -1 -33 -6 -68 -10 -36 -3 -68 -8 -73 -11 -4 -2 -20
-7 -35 -9 -53 -10 -202 -64 -272 -99 -146 -74 -299 -189 -390 -296 -64 -74
-150 -192 -150 -206 0 -6 -4 -13 -8 -15 -23 -9 -131 -281 -145 -363 -3 -17
-10 -61 -17 -100 -12 -70 -15 -265 -6 -314 3 -14 8 -48 11 -76 16 -136 92
-338 184 -485 22 -36 103 -142 124 -163 10 -10 17 -20 15 -22 -1 -1 -41 4 -88
12 -83 14 -332 13 -405 -1 -16 -4 -43 -9 -60 -12 -78 -16 -229 -71 -319 -117
-348 -178 -598 -509 -682 -902 -21 -101 -26 -322 -9 -435 55 -369 260 -690
573 -897 327 -215 739 -269 1117 -145 315 102 589 338 742 638 49 96 103 236
103 268 0 31 18 15 25 -21 17 -92 125 -314 206 -423 125 -169 285 -303 477
-399 47 -24 190 -78 225 -85 12 -3 56 -13 97 -22 112 -25 341 -26 472 -2 367
69 671 276 873 593 62 98 141 285 160 380 23 115 27 155 30 275 2 130 -13 283
-35 340 -5 14 -11 36 -14 50 -9 50 -68 189 -117 276 -175 305 -459 522 -807
615 -102 27 -167 34 -327 34 -160 -1 -198 -5 -340 -41 -11 -3 -16 -2 -10 3 27
21 118 136 159 201 140 220 207 464 201 727 -5 200 -41 348 -131 540 -131 279
-402 527 -699 638 -82 31 -201 63 -265 73 -48 7 -317 14 -322 8z m470 -2551
c-120 -144 -155 -194 -212 -311 -44 -88 -96 -227 -96 -256 0 -9 -4 -16 -10
-16 -5 0 -10 7 -10 16 0 53 -106 295 -171 391 -38 56 -111 147 -121 151 -16 7
-7 23 10 18 48 -15 91 -18 242 -21 143 -3 179 -1 270 19 58 13 107 24 109 25
2 0 -3 -7 -11 -16z"/>
</g>
</svg>
